<svg width="80" height="32" fill="none" xmlns="http://www.w3.org/2000/svg"><path d="M72.257 4c.148.024.296.046.443.073 1.29.24 2.209 1.266 2.261 2.59.038.96.022 1.92.016 2.88-.001.077-.096.202-.17.222-.871.231-1.746.447-2.663.678V6.9h-2.825v6.818h5.665v.306c0 3.52-.02 7.041.01 10.561.011 1.284-.477 2.255-1.52 2.967-.406.278-.87.426-1.353.436-.93.02-1.862.013-2.793-.01-1.363-.036-2.84-1.414-2.863-2.99-.02-1.373-.004-2.747-.004-4.151l2.833-.708v4.966h2.83v-8.533h-5.677v-.344c0-2.937-.003-5.874.004-8.81.001-.432.016-.87.092-1.293.212-1.177 1.07-1.945 2.251-2.067.063-.007.124-.032.186-.048h3.277zM12.101 4c.137.026.274.05.41.078 1.172.234 1.976 1.108 2.007 2.324.045 1.768.018 3.538.022 5.308 0 .017-.012.035-.026.079l-2.797.7V6.902H8.872v18.186h2.825v-4.23h2.833c.005.051.014.096.014.141-.004 1.487.013 2.975-.018 4.462-.031 1.43-1.04 2.447-2.468 2.491a58.87 58.87 0 01-3.36.003c-1.466-.039-2.498-1.032-2.65-2.493-.008-.074-.032-.146-.048-.218V6.882c.016-.072.04-.144.048-.217.133-1.327 1.055-2.338 2.364-2.585.156-.03.313-.053.469-.079L12.1 4zm6.219 14.558l-.866.272v-.873c0-.593.004-1.186-.003-1.78-.003-.158.05-.226.205-.274.653-.201.651-.208.651-.895.001-2.655.002-5.31.005-7.965 0-1.097.423-1.994 1.375-2.557.382-.226.859-.396 1.297-.406 1.938-.043 3.877-.018 5.837-.018v23.87h-2.816V17.104c-.502.136-.969.263-1.436.388-.39.105-.778.22-1.172.306-.208.045-.26.143-.258.346.007 1.902.004 3.804.004 5.705v4.086h-2.822v-9.377zM21.164 6.89v8.107c.873-.219 1.717-.443 2.567-.638.226-.052.275-.147.274-.36C23.997 11.729 24 9.46 24 7.192c0-.099-.009-.198-.014-.302h-2.822zm41.868 21.055h-2.82V17.103c-.766.205-1.49.399-2.212.594-.651.176-.65.178-.65.855v9.386h-2.831V18.56l-.83.262c-.012-.09-.028-.16-.028-.229-.002-.8.003-1.6-.005-2.4-.001-.17.05-.244.219-.295.64-.192.638-.2.638-.875l.004-7.937c.001-1.25.517-2.207 1.657-2.756a2.74 2.74 0 011.114-.262c1.872-.03 3.746-.02 5.619-.023.036 0 .072.01.125.017v23.883zM57.357 14.98c.097-.015.172-.021.244-.04.784-.196 1.565-.404 2.352-.585.216-.05.258-.147.257-.345-.005-2.279-.003-4.557-.003-6.835v-.27h-2.85v8.075zM30.263 4.06c.079-.006.143-.016.208-.016 1.948.002 3.896 0 5.845.01.909.003 1.673.33 2.11 1.159.187.353.264.777.327 1.18.055.35.025.714.025 1.071v20.469h-2.826V6.903h-2.86v21.032h-2.83l.001-23.875zm21.333-.007v2.82h-.89l-.248 1.92-.769 6.075c-.254 2.007-.504 4.014-.76 6.02-.202 1.586-.387 3.175-.627 4.756-.158 1.036-.704 1.816-1.746 2.16a2.099 2.099 0 01-.634.12c-1.222.012-2.444.006-3.686.006V4.063h2.83v20.529c0 .528 0 .529.52.521.074 0 .148-.009.248-.015.071-.604.142-1.2.211-1.797.221-1.915.442-3.832.66-5.748.235-2.047.465-4.094.702-6.141.203-1.757.399-3.515.625-5.27.162-1.255 1.1-2.06 2.376-2.088.384-.009.768-.001 1.188-.001z" fill="#000"/></svg>